<svg width="68" height="100" viewBox="0 0 68 100" fill="none" xmlns="http://www.w3.org/2000/svg">
<path d="M34.3608 94.6444C21.3232 94.6444 11.9267 89.1239 6.52369 78.6703L20.5 70C23.084 74.5808 28.1356 76.3212 34.4783 76.3212C42.7002 76.3212 45.1668 71.623 45.1668 66.5723V10.7806L61 8L63.9598 10.7806V66.5723C63.9598 84.6606 51.2745 94.6444 34.3608 94.6444Z" fill="black"/>
<path d="M31.3608 91.6444C18.3232 91.6444 8.92667 86.1239 3.52369 75.6703L19.8501 66.2738C22.4341 70.8546 25.1356 73.3212 31.4783 73.3212C39.7002 73.3212 42.1668 68.623 42.1668 63.5723V7.78064H60.9598V63.5723C60.9598 81.6606 48.2745 91.6444 31.3608 91.6444Z" fill="white"/>
</svg>
